<?xml version="1.0" encoding="UTF-8"?>
<!-- Generator: Adobe Illustrator 25.4.1, SVG Export Plug-In . SVG Version: 6.00 Build 0)  -->
<svg xmlns="http://www.w3.org/2000/svg" xmlns:xlink="http://www.w3.org/1999/xlink" version="1.1" id="Capa_1" x="0px" y="0px" viewBox="0 0 512 512" style="enable-background:new 0 0 512 512;" xml:space="preserve" width="512" height="512">
<g>
	<path d="M162.664,0.009c-2.629,0.079-5.46,1.035-8.67,3.532c-7.867-2.988-15.493-4.026-22.311,2.056   c-10.53-1.346-13.953,1.431-16.546,4.672c-2.311-0.047-17.299-2.34-24.171,7.758C73.695,16.014,68.235,28.034,74.42,39.241   c-3.527,5.379-7.181,10.694,1.066,20.946c-2.917,5.711-1.108,11.906,5.766,19.404c-1.814,8.029,1.753,13.692,8.147,18.107   c-1.197,10.986,10.228,17.374,13.64,19.65c1.309,6.401,4.04,12.442,17.09,15.781c2.151,9.541,9.994,11.188,17.589,13.19   c-25.102,14.371-46.626,33.281-46.48,79.677l-3.678,6.461c-28.78,17.241-54.675,72.652-14.183,117.69   c2.645,14.099,7.081,24.225,11.03,35.432c5.908,45.162,44.461,66.309,54.63,68.81c14.9,11.179,30.77,21.787,52.245,29.217   c20.244,20.565,42.176,28.403,64.229,28.391c0.323,0,0.652,0.004,0.975,0c22.053,0.012,43.985-7.825,64.229-28.391   c21.476-7.431,37.345-18.039,52.247-29.217c10.168-2.501,48.721-23.648,54.629-68.81c3.948-11.207,8.385-21.333,11.029-35.432   c40.493-45.042,14.6-100.457-14.184-117.697l-3.682-6.459c0.146-46.392-21.38-65.301-46.481-79.677   c7.595-2.002,15.438-3.649,17.589-13.188c13.051-3.342,15.781-9.383,17.09-15.783c3.413-2.275,14.837-8.664,13.641-19.65   c6.395-4.414,9.962-10.079,8.148-18.106c6.874-7.498,8.683-13.693,5.765-19.404c8.251-10.25,4.59-15.564,1.067-20.943   c6.18-11.208,0.728-23.226-16.551-21.214c-6.87-10.098-21.853-7.805-24.17-7.758c-2.593-3.241-6.013-6.017-16.544-4.672   c-6.819-6.082-14.446-5.044-22.311-2.056c-9.341-7.259-15.52-1.44-22.58,0.759c-11.307-3.639-13.894,1.347-19.449,3.376   c-12.333-2.566-16.081,3.022-21.993,8.921L287.1,16.46c-18.6,10.796-27.839,32.782-31.115,44.083   c-3.277-11.304-12.497-33.289-31.093-44.083l-6.876,0.134c-5.92-5.899-9.669-11.487-22-8.921   c-5.555-2.029-8.133-7.015-19.449-3.376c-4.633-1.444-8.896-4.445-13.913-4.292L162.664,0.009z"/>
	<path style="fill:#6ABF4B;" d="M126.001,47.508c49.348,25.058,78.037,45.332,93.753,62.596   c-8.048,31.775-50.036,33.225-65.389,32.334c3.143-1.441,5.766-3.168,6.696-5.82c-3.852-2.696-17.513-0.284-27.048-5.561   c3.662-0.748,5.377-1.476,7.089-4.139c-9.009-2.83-18.714-5.27-24.422-9.959c3.081,0.039,5.956,0.679,9.979-2.069   c-8.071-4.284-16.682-7.678-23.372-14.226c4.171-0.1,8.67-0.041,9.978-1.552c-7.386-4.507-13.618-9.52-18.777-15.002   c5.84,0.694,8.305,0.096,9.718-0.906c-5.583-5.631-12.651-10.389-16.02-17.33c4.336,1.472,8.302,2.035,11.162-0.129   c-1.898-4.217-10.027-6.703-14.707-16.555c4.565,0.436,9.406,0.98,10.374,0c-2.12-8.501-5.754-13.281-9.32-18.233   c9.768-0.142,24.568,0.038,23.898-0.776l-6.039-6.079c9.54-2.53,19.303,0.406,26.392,2.587c3.182-2.473-0.056-5.602-3.939-8.795   c8.109,1.067,15.436,2.904,22.058,5.433c3.54-3.148-2.296-6.295-5.121-9.442c12.528,2.341,17.836,5.63,23.11,8.924   c3.828-3.613,0.22-6.684-2.363-9.829c9.446,3.446,14.312,7.894,19.434,12.286c1.737-2.309,4.412-4.001,1.182-9.571   c6.706,3.808,11.756,8.295,15.494,13.322c4.149-2.603,2.473-6.162,2.495-9.442c6.969,5.585,11.393,11.528,16.808,17.331   c1.09-0.781,2.045-3.435,2.888-7.631c16.627,15.889,40.122,55.91,6.04,71.779c-29.007-23.564-63.649-40.692-102.04-53.54   L126.001,47.508z"/>
	<path style="fill:#6ABF4B;" d="M387.373,47.508c-49.344,25.063-78.031,45.328-93.748,62.596   c8.049,31.775,50.037,33.225,65.39,32.334c-3.144-1.441-5.767-3.168-6.696-5.82c3.852-2.696,17.512-0.284,27.049-5.561   c-3.663-0.748-5.377-1.476-7.091-4.139c9.01-2.83,18.715-5.27,24.423-9.959c-3.08,0.039-5.957,0.679-9.979-2.069   c8.07-4.284,16.682-7.678,23.371-14.226c-4.172-0.1-8.67-0.041-9.979-1.552c7.388-4.507,13.62-9.52,18.778-15.002   c-5.838,0.694-8.304,0.096-9.717-0.906c5.584-5.631,12.65-10.389,16.02-17.33c-4.336,1.472-8.302,2.035-11.162-0.129   c1.898-4.217,10.026-6.703,14.706-16.555c-4.564,0.436-9.404,0.98-10.373,0c2.122-8.505,5.758-13.284,9.322-18.237   c-9.768-0.142-24.567,0.038-23.898-0.776l6.042-6.078c-9.543-2.53-19.305,0.405-26.394,2.586c-3.181-2.474,0.057-5.602,3.939-8.794   c-8.108,1.066-15.436,2.902-22.059,5.432c-3.538-3.147,2.298-6.294,5.121-9.441c-12.527,2.341-17.835,5.63-23.11,8.924   c-3.827-3.613-0.218-6.684,2.363-9.828c-9.446,3.445-14.311,7.894-19.433,12.286c-1.737-2.309-4.411-4-1.182-9.571   c-6.707,3.809-11.757,8.295-15.494,13.322c-4.15-2.603-2.472-6.161-2.495-9.44c-6.97,5.584-11.394,11.527-16.807,17.329   c-1.09-0.782-2.045-3.435-2.889-7.631c-16.628,15.889-40.124,55.911-6.04,71.779c28.991-23.569,63.632-40.696,102.025-53.543   L387.373,47.508z"/>
	<g>
		<path style="fill:#C31C4A;" d="M316.368,371.068c0.172,29.65-26.154,53.814-58.799,53.97    c-32.645,0.156-59.249-23.754-59.421-53.404c0-0.189,0-0.377,0-0.566c-0.171-29.65,26.153-53.815,58.799-53.97    c32.645-0.156,59.249,23.753,59.42,53.404C316.369,370.69,316.369,370.878,316.368,371.068z"/>
		<g>
			<path style="fill:#C31C4A;" d="M224.203,217.699c24.493,15.805,28.908,51.632,9.862,80.02     c-19.046,28.389-54.341,38.591-78.833,22.785l0,0c-24.492-15.806-28.908-51.633-9.861-80.022     C164.417,212.094,199.711,201.893,224.203,217.699L224.203,217.699z"/>
			<path style="fill:#C31C4A;" d="M290.311,214.838c-24.493,15.805-28.908,51.633-9.862,80.02     c19.047,28.389,54.341,38.591,78.833,22.786l0,0c24.493-15.806,28.908-51.633,9.862-80.022     C350.099,209.233,314.804,199.032,290.311,214.838L290.311,214.838z"/>
		</g>
		<g>
			<path style="fill:#C31C4A;" d="M103.306,243.705c26.442-6.982,8.927,107.755-12.588,98.341     C67.05,323.295,59.427,268.385,103.306,243.705z"/>
			<path style="fill:#C31C4A;" d="M408.895,242.274c-26.446-6.979-8.927,107.761,12.59,98.347     C445.151,321.869,452.774,266.954,408.895,242.274L408.895,242.274z"/>
		</g>
		<path style="fill:#C31C4A;" d="M320.207,156.667c45.634-7.59,83.607,19.115,82.075,67.858    C400.78,243.211,303.393,159.449,320.207,156.667z"/>
		<path style="fill:#C31C4A;" d="M194.12,155.236c-45.638-7.59-83.607,19.121-82.074,67.859    C113.546,241.78,210.933,158.019,194.12,155.236z"/>
		<path style="fill:#C31C4A;" d="M256.991,143.87c-27.237-0.698-53.376,19.911-53.44,31.864    c-0.076,14.525,21.534,29.396,53.625,29.774c32.772,0.231,53.682-11.904,53.788-26.894c0.12-16.983-29.805-35.007-53.973-34.746    V143.87z"/>
		<path style="fill:#C31C4A;" d="M259.095,441.715c23.746-1.022,55.611,7.534,55.673,18.882    c0.394,11.02-28.899,35.919-57.249,35.439c-29.361,1.246-58.15-23.69-57.773-32.334    C199.307,451.028,235.497,441.134,259.095,441.715L259.095,441.715z"/>
		<g>
			<path style="fill:#C31C4A;" d="M171.212,374.456c16.906,20.063,24.613,55.311,10.505,65.7     c-13.349,7.933-45.764,4.667-68.805-27.936c-15.537-27.355-13.536-55.194-2.625-63.371     C126.602,339.06,151.809,352.282,171.212,374.456L171.212,374.456z"/>
			<path style="fill:#C31C4A;" d="M341.43,368.097c-18.292,21.104-28.478,59.596-15.134,71.993     c12.758,9.631,47.01,8.284,72.312-26.293c18.371-23.223,12.215-62.009,1.722-72.308c-15.589-11.877-37.967,3.323-58.9,26.602     V368.097z"/>
		</g>
	</g>
</g>















</svg>
