<?xml version="1.0" encoding="iso-8859-1"?>
<!-- Generator: Adobe Illustrator 19.0.0, SVG Export Plug-In . SVG Version: 6.00 Build 0)  -->
<svg version="1.1" id="Layer_1" xmlns="http://www.w3.org/2000/svg" xmlns:xlink="http://www.w3.org/1999/xlink" x="0px" y="0px"
	 viewBox="0 0 512 512" style="enable-background:new 0 0 512 512;" xml:space="preserve">
<path style="fill:#98C8ED;" d="M163.802,38.4h184.397c29.679,0,56.701,17.101,69.407,43.923L512,281.6L435.2,320l-38.4-76.8v230.4
	H115.2V243.2L76.8,320L0,281.6L94.395,82.323C107.1,55.501,134.122,38.4,163.802,38.4z"/>
<polygon style="fill:#579ADF;" points="179.2,38.4 256,115.2 332.8,115.2 332.8,38.4 "/>
<rect x="256" y="38.4" style="fill:#4A82CA;" width="76.8" height="76.8"/>
<path style="fill:#7AB9E8;" d="M192,409.6c0,35.375,28.625,64,64,64h140.8V243.2l38.4,76.8l76.8-38.4L417.605,82.323
	C404.9,55.501,377.878,38.4,348.198,38.4H332.8L214.495,156.705C200.091,171.109,192,190.643,192,211.012V409.6"/>
<path style="fill:#579ADF;" d="M417.605,82.323C404.9,55.501,377.878,38.4,348.198,38.4H332.8L256,115.2v358.4h140.8V243.2
	l38.4,76.8l76.8-38.4L417.605,82.323z"/>
<polygon style="fill:#B4D8F1;" points="396.8,313.6 115.2,313.6 115.2,352 300.8,352 300.8,416 339.2,416 339.2,352 396.8,352 "/>
<polygon style="fill:#7AB9E8;" points="256,313.6 256,352 300.8,352 300.8,416 339.2,416 339.2,352 396.8,352 396.8,313.6 "/>
<g>
</g>
<g>
</g>
<g>
</g>
<g>
</g>
<g>
</g>
<g>
</g>
<g>
</g>
<g>
</g>
<g>
</g>
<g>
</g>
<g>
</g>
<g>
</g>
<g>
</g>
<g>
</g>
<g>
</g>
</svg>
