<?xml version="1.0" encoding="iso-8859-1"?>
<!-- Generator: Adobe Illustrator 19.0.0, SVG Export Plug-In . SVG Version: 6.00 Build 0)  -->
<svg version="1.1" id="Capa_1" xmlns="http://www.w3.org/2000/svg" xmlns:xlink="http://www.w3.org/1999/xlink" x="0px" y="0px"
	 viewBox="0 0 512 512" style="enable-background:new 0 0 512 512;" xml:space="preserve">
<path style="fill:#F74C48;" d="M256.001,188.375c-67.579,0-122.361,54.781-122.361,122.36v131.108H378.36V310.735
	C378.36,243.157,323.578,188.375,256.001,188.375z"/>
<path style="fill:#D63322;" d="M298.408,195.928c-13.212-4.882-27.497-7.552-42.406-7.552c-67.579,0-122.361,54.781-122.361,122.36
	v131.108h84.815V310.735C218.456,258.067,251.732,213.174,298.408,195.928z"/>
<g>
	<path style="fill:#C6271A;" d="M88.962,307.371H21.78c-7.895,0-14.297-6.4-14.297-14.296c0-7.896,6.402-14.297,14.297-14.297
		h67.181c7.895,0,14.297,6.401,14.297,14.297C103.258,300.97,96.856,307.371,88.962,307.371z"/>
	<path style="fill:#C6271A;" d="M490.22,307.371H423.04c-7.897,0-14.297-6.4-14.297-14.296c0-7.896,6.4-14.297,14.297-14.297h67.179
		c7.897,0,14.297,6.401,14.297,14.297C504.516,300.97,498.116,307.371,490.22,307.371z"/>
	<path style="fill:#C6271A;" d="M431.729,137.564l-47.504,47.504c-5.585,5.584-14.636,5.584-20.218,0
		c-5.586-5.583-5.586-14.635,0-20.218l47.503-47.504c5.583-5.584,14.634-5.583,20.219,0
		C437.312,122.93,437.312,131.982,431.729,137.564z"/>
	<path style="fill:#C6271A;" d="M270.298,58.853v67.182c0,7.896-6.403,14.297-14.297,14.297
		c-7.896-0.001-14.297-6.401-14.297-14.297V58.853c0-7.896,6.401-14.295,14.297-14.297
		C263.895,44.559,270.298,50.959,270.298,58.853z"/>
	<path style="fill:#C6271A;" d="M100.491,117.347l47.503,47.504c5.583,5.584,5.583,14.636,0,20.218
		c-5.585,5.583-14.635,5.584-20.218,0l-47.504-47.504c-5.585-5.582-5.583-14.634,0-20.218
		C85.854,111.764,94.907,111.764,100.491,117.347z"/>
</g>
<path style="fill:#585A60;" d="M399.846,467.443H112.155c-7.895,0-14.297-6.401-14.297-14.297c0-7.896,6.402-14.297,14.297-14.297
	h287.691c7.895,0,14.296,6.401,14.296,14.297C414.142,461.042,407.741,467.443,399.846,467.443z"/>
<path style="fill:#414356;" d="M399.846,453.147H112.155c-5.287,0-9.894-2.88-12.368-7.148c-5.511,9.511,1.374,21.445,12.368,21.445
	h287.691c10.972,0,17.888-11.913,12.368-21.445C409.74,450.267,405.134,453.147,399.846,453.147z"/>
<path d="M110.742,293.075c0-12.01-9.771-21.78-21.78-21.78H21.78c-12.01,0-21.78,9.771-21.78,21.78s9.771,21.779,21.78,21.779
	h67.181C100.971,314.855,110.742,305.084,110.742,293.075z M88.962,299.888H21.78c-3.757,0-6.813-3.056-6.813-6.812
	c0-3.757,3.056-6.813,6.813-6.813h67.181c3.757,0,6.813,3.056,6.813,6.813C95.775,296.831,92.718,299.888,88.962,299.888z"/>
<path d="M490.22,271.295H423.04c-12.01,0-21.78,9.771-21.78,21.78s9.771,21.779,21.78,21.779h67.179
	c12.01,0,21.78-9.771,21.78-21.779C512,281.066,502.229,271.295,490.22,271.295z M490.22,299.888H423.04
	c-3.757,0-6.813-3.056-6.813-6.812c0-3.757,3.057-6.813,6.813-6.813h67.179c3.757,0,6.813,3.056,6.813,6.813
	C497.033,296.831,493.976,299.888,490.22,299.888z"/>
<path d="M389.517,190.361l47.504-47.504c13.674-13.676,3.938-37.181-15.403-37.181c-5.817,0-11.287,2.266-15.4,6.379l-47.501,47.503
	c-8.513,8.511-8.517,22.288-0.002,30.802C367.224,198.873,381.001,198.874,389.517,190.361z M416.803,122.638
	c1.286-1.286,2.996-1.995,4.815-1.995c6.05,0,9.099,7.35,4.818,11.63l-47.503,47.504c-4.31,4.31-11.632,1.197-11.632-4.816
	C367.301,171.075,365.405,174.037,416.803,122.638z"/>
<path d="M256,147.816L256,147.816c12.011,0,21.781-9.771,21.781-21.78V58.853c0-12.007-9.77-21.777-21.782-21.78
	c-12.009,0.003-21.778,9.774-21.778,21.78v67.182C234.22,138.044,243.991,147.815,256,147.816z M249.187,58.853
	c0-3.756,3.056-6.812,6.811-6.813c3.759,0.001,6.815,3.057,6.815,6.813v67.182c0,3.757-3.056,6.812-6.812,6.813
	c-3.758-0.001-6.814-3.056-6.814-6.813L249.187,58.853L249.187,58.853z"/>
<path d="M122.485,190.36c4.113,4.114,9.583,6.38,15.4,6.38c5.816,0,11.286-2.265,15.401-6.379
	c8.492-8.491,8.492-22.308,0.001-30.802l-47.504-47.505c-13.775-13.769-37.178-3.834-37.182,15.402c0,5.819,2.266,11.288,6.38,15.4
	L122.485,190.36z M95.199,122.638l47.503,47.504c2.656,2.657,2.656,6.979,0.001,9.634c-1.287,1.287-2.999,1.997-4.818,1.997
	c-1.819,0-3.529-0.708-4.815-1.996c-51.396-51.395-49.501-48.432-49.501-52.321C83.571,121.362,90.946,118.384,95.199,122.638z"/>
<path d="M399.846,431.366h-14.002v-66.172c0-4.133-3.35-7.484-7.484-7.484s-7.484,3.351-7.484,7.484v66.172H141.125V310.735
	c0-63.343,51.533-114.876,114.877-114.876c63.342,0,114.875,51.533,114.875,114.876v19.534c0,4.133,3.35,7.484,7.484,7.484
	s7.484-3.351,7.484-7.484v-19.534c0-71.596-58.247-129.843-129.842-129.843c-71.597,0-129.844,58.248-129.844,129.843v120.631
	h-14.002c-12.01,0-21.78,9.771-21.78,21.78s9.771,21.78,21.78,21.78h32.848c4.134,0,7.484-3.351,7.484-7.484
	s-3.35-7.484-7.484-7.484h-32.848c-3.757,0-6.813-3.056-6.813-6.813s3.057-6.813,6.813-6.813c16.221,0,272.498,0,287.691,0
	c3.757,0,6.812,3.056,6.812,6.813s-3.056,6.813-6.812,6.813H179.927c-4.134,0-7.484,3.351-7.484,7.484s3.35,7.484,7.484,7.484
	h219.919c12.009,0,21.779-9.771,21.779-21.78C421.625,441.137,411.855,431.366,399.846,431.366z"/>
<g>
</g>
<g>
</g>
<g>
</g>
<g>
</g>
<g>
</g>
<g>
</g>
<g>
</g>
<g>
</g>
<g>
</g>
<g>
</g>
<g>
</g>
<g>
</g>
<g>
</g>
<g>
</g>
<g>
</g>
</svg>
