<svg id="svg8" height="512" viewBox="0 0 16.933333 16.933334" width="512" xmlns="http://www.w3.org/2000/svg" xmlns:svg="http://www.w3.org/2000/svg"><g id="layer1"><path id="rect820" d="m57.003906 0c-1.644586 0-3.004125 1.3514446-3.003906 2.9960938v1.0058593h-4.998047c-.549154.00219-.993894.4468819-.996094.9960938v5.0039061c.0022.54925.446902.993994.996094.996094.54923-.0021.993996-.446844.996094-.996094v-3.9999999h4.001953v.9960938c0 1.6446871 1.359317 3.0039061 3.003906 3.0039061h.996094l.01367 2.169922c-1.167245.411748-2.015623 1.528627-2.015623 2.828125 0 1.644989 1.358976 2.996094 3.003906 2.996094 1.644934 0 2.998047-1.351105 2.998047-2.996094 0-1.302257-.848404-2.420484-2.017578-2.830078l.01563-2.167969h1.005859c1.644626 0 2.996089-1.359219 2.996089-3.0039061v-4.0019531c0-1.6446492-1.351463-2.9960938-2.996094-2.9960938zm-.002 2h4.001953c.571311 0 .996141.4248092.996141.9960938v4.0019531c0 .5712843-.42483 1.0039062-.996094 1.0039062h-4.001953c-.571264 0-1.003906-.4326219-1.003906-1.0039062v-2-2.0019531c0-.5712846.432642-.9960938 1.003906-.9960938zm1.998094 2c-.552272-.0000098-1.000015.4477097-1 1 .000011.5522755.447743 1.0000098 1 1 .552242-.000011.999989-.4477392 1-1 .000008-.5522755-.447743-.999989-1-1zm-29.419922.9824219c-4.418449-.0580165-8.984061 1.0319676-12.873047 3.2773437-7.7651959 4.4834204-11.7089841 12.8721914-11.7089841 21.7402344h-1.9902344c-.858844-.0045-1.3235727 1.004586-.7617187 1.654297l5.9921874 6.998047c.399224.467833 1.1222605.467833 1.5214844 0l6.0019534-6.998047c.561892-.649711.097238-1.658114-.761719-1.654297h-2c0-6.708425 3.36288-12.970614 8.955078-16.675781 5.608298-3.715862 12.702523-4.5772891 18.763672-2.953125 1.075714.28997 1.748298-1.1314003.841797-1.7792971-3.287637-2.3467827-7.562057-3.5511703-11.980469-3.609375zm-.03125 2.0292969c1.285244-.0000001 3.078747.1773356 4.789063.5664062-5.461541.1227987-9.875789 1.691154-13.490235 4.085937-6.149327 4.074319-9.847656 10.959169-9.847656 18.335938v.996094c-.002116.555335.44859 1.006006 1.003906 1.003906h.820313l-3.824219 4.466797-3.8242188-4.466797h.8261719c.5522544-.0022.9982141-.451632.9960938-1.003906v-.996094c0-8.280431 3.6275811-15.914987 10.7128911-20.0058594 3.53621-2.0416951 7.767833-2.9835557 11.83789-2.9824218zm14.757813 3.3945312c-.07231.0011-.147463.01032-.222657.03125-.257223.0655-.477974.230697-.613281.458984-.283982.475019-.128216 1.090335.347656 1.373047.304396.182252.605588.372576.900391.56836.459356.301612 1.075852.175967 1.380859-.28125.306924-.460921.18079-1.083661-.28125-1.388672-.320613-.212716-.6439-.42109-.974609-.619141-.124997-.07268-.320175-.145745-.537109-.142578zm3.527343 2.615234c-.25243.0093-.509421.13669-.685546.333985-.369291.415452-.329034 1.052484.08984 1.417969.264144.23354.522163.469548.775391.714843.395671.379433 1.022371.369073 1.40625-.02344.385958-.396894.377513-1.033019-.02148-1.417969-.275109-.266726-.554553-.519449-.841797-.773437-.19793-.17651-.458241-.267676-.722657-.251954zm11.164063.982422c.598745.02748 1 .449603 1 .996094 0 .564141-.431965.996094-.996094.996094-.564079 0-1.003906-.431953-1.003906-.996094 0-.564104.460109-.996094 1-.996094zm-8.013672 2.230469c-.332625-.0094-.512569.08325-.677734.212891-.436158.33831-.515625.965952-.177735 1.402343.217433.278518.429915.56085.634766.84961.3205.450905.946316.556016 1.396484.234375.450142-.319753.556076-.944194.236328-1.394532-.222534-.313893-.451279-.619131-.6875-.921874-.164598-.210447-.382184-.348835-.724609-.382813zm-18.984375 1.761719c-.984512 0-1.642785.07843-2.214844.355468-.572059.277082-.917935.833414-1.05664 1.166016-.138706.332718-.179089.47823-.324219.65625-.145093.177905-.41888.42577-1.107422.716797-.691716.291783-1.075591.325665-1.314453.310547-.238938-.01663-.380298-.08231-.701172-.207031-.320951-.124729-.927253-.277437-1.519531-.08203-.592279.195329-1.086314.593563-1.740235 1.25586-.653922.662259-1.045338 1.16012-1.232422 1.755859-.187082.595776-.02335 1.211435.107422 1.529297.130771.317978.203757.444597.222657.679687.02041.235166-.0079.619891-.289063 1.3125-.281192.692648-.530215.98251-.708984 1.136719-.178617.153826-.315148.199744-.626953.332031-.311844.132361-.856096.444261-1.142579.998047-.285351.551894-.355256 1.176217-.347656 2.087891-.0076.911712.06231 1.537872.347656 2.089844.286369.553898.830774.863806 1.142579.996094.31207.132661.448185.177823.626953.332031.178655.15417.427795.444151.708984 1.136719.281533.692646.30796 1.07155.289063 1.30664-.02041.235128-.09189.369642-.222657.6875-.131901.3179-.294504.923795-.107422 1.519531.186971.595779.5785 1.103365 1.232422 1.765625.653921.662295 1.149908 1.058505 1.742188 1.253907.592278.195401 1.196704.04465 1.517578-.08008.320952-.124724.46231-.191913.701172-.207031.238975-.01663.622699.01058 1.314453.302735.688503.290838.962292.536828 1.107422.714843.14513.177903.185514.331464.324219.664063.13863.332681.484619.890929 1.05664 1.167969.572059.277039 1.230371.345703 2.214844.345703s1.642786-.06866 2.214844-.345703c.572058-.277081.915979-.835371 1.054687-1.167969.138709-.332568.179085-.486047.324219-.664063.14513-.177906.418883-.424198 1.107422-.714843.691718-.291402 1.075587-.317853 1.314453-.302735.238934.01663.38029.08231.701172.207031.320988.124725.929206.27548 1.521484.08008.592282-.195368 1.088265-.591612 1.742188-1.253907.653922-.66226 1.045335-1.169846 1.232422-1.765625.186708-.595736.01944-1.201673-.111329-1.519531-.130771-.317832-.201805-.452413-.220703-.6875-.02041-.235165.0059-.613994.28711-1.30664.281231-.69261.530212-.982511.708984-1.136719.178621-.154205.315142-.199744.626953-.332031.311807-.1324.858043-.442309 1.144532-.996094.284598-.549968.363027-1.175411.355468-2.089844.0068-.914395-.07087-1.537811-.355468-2.087891-.286372-.553899-.824908-.865763-1.136719-.998047-.311951-.132283-.455994-.177822-.634766-.332031-.178654-.15417-.427787-.444109-.708984-1.136719-.279685-.692609-.306007-1.077409-.28711-1.3125.02041-.235165.08993-.361825.220703-.679687.130394-.317901.321848-.853129.111329-1.529297-.18576-.596154-.5785-1.0936-1.232422-1.755859-.653923-.662297-1.149906-1.060454-1.742188-1.25586-.592278-.195401-1.200602-.04269-1.521484.08203-.32095.124732-.462306.191913-.701172.207031-.238938.01625-.622735-.01839-1.314453-.310547-.688539-.290839-.962288-.538777-1.107422-.716797-.145134-.177905-.18551-.323648-.324219-.65625-.138591-.332679-.482629-.888972-1.054687-1.166016-.572058-.277043-1.230371-.355468-2.214844-.355468zm21.359375 1.970703c-.175506-.0082-.349765.03045-.505859.111328-.492356.254177-.684365.860329-.427735 1.351563.164213.317106.322987.633185.472657.958984.228737.503668.82448.727404 1.328124.496094.501423-.232407.720281-.828528.486329-1.330078-.162698-.354148-.329419-.702179-.507813-1.046876-.164409-.319145-.487026-.52601-.845703-.541015zm-21.359375.03125c.850226.0013 1.25833.11505 1.34375.15625.026.02578.03133.02793.08008.140625.08485.203531.233284.676834.621094 1.152344.38781.475472.983456.911962 1.880859 1.291015.89418.377504 1.620431.507173 2.230469.464844.61008-.04233 1.065566-.254804 1.285156-.339844.219213-.08467.100315-.07346.167969-.05078.06765.02234.39151.198876.945313.759766.55395.560891.735008.893972.753906.958984.02003.06464.03646-.06032-.05273.15625-.0892.216457-.315849.668302-.36914 1.277344-.05317.609004.06534 1.33879.429687 2.236328.364453.897614.790245 1.4963 1.253906 1.896484.463703.400222.938991.571083 1.158204.664063.106582.04346.138925.051.146484.05859.02759.05734.134512.402177.126953 1.181641.0068.779426-.100496 1.125393-.126953 1.183594-.0098.0079-.0399.01128-.146484.05664-.219209.09305-.694576.26388-1.158204.664062-.463589.400183-.889559 1.000862-1.253906 1.898438-.364263.897538-.482979 1.625406-.429687 2.234374.05329.609007.279944 1.052965.36914 1.269532.09071.216567.07163.09905.05273.164062-.02037.06489-.200066.396142-.753906.957032-.553803.561006-.877659.739041-.945313.761718-.06765.02268.05124.03426-.167969-.05078-.219394-.08504-.675076-.297513-1.285156-.339844-.610042-.04237-1.336285.08922-2.230469.466797-.897392.379094-1.493049.815506-1.880859 1.291016-.387735.475468-.536432.948627-.621094 1.152344-.08395.203716.0053.09748-.08008.138671-.08538.0412-.493259.15625-1.34375.15625s-1.258151-.115999-1.361328-.162109c-.01474-.0094-.01431-.0331-.05664-.134766-.08481-.203569-.239143-.676875-.626953-1.152343-.38781-.475472-.985417-.91196-1.882812-1.291016-.894182-.377582-1.618436-.509128-2.228516-.466797-.610042.04233-1.065947.254805-1.285156.339844-.219587.08655-.102272.07541-.169922.05273-.06761-.02234-.391509-.200867-.945313-.761718-.553766-.56089-.733309-.89316-.759765-.96875-.0026-.01625.014-.04425.05859-.152344.08919-.216458.315849-.660491.36914-1.269532.05318-.609006-.06339-1.338789-.427734-2.236328-.364416-.897613-.792159-1.498292-1.25586-1.898437-.463664-.400259-.938994-.571082-1.158203-.664063-.106953-.04535-.138887-.04904-.146484-.05664-.027588-.058276-.126735-.404578-.119138-1.183588-.0068-.779011.08891-1.122239.119141-1.179688.01096-.0064.04469-.0121.154297-.05859.219208-.09305.686764-.26388 1.15039-.664063.463588-.400182.891517-.998947 1.25586-1.896484.364183-.897576.481025-1.627324.427734-2.236328-.05329-.609044-.27994-1.052961-.36914-1.269532-.04384-.108479-.06241-.135335-.05859-.152343.02793-.07812.205961-.411804.759765-.972657.553804-.560966.877663-.737088.945313-.759765.06765-.0223-.04929-.03426.169922.05078.219398.08504.675076.297513 1.285156.339844.61008.04237 1.334334-.08726 2.228516-.464844.897394-.379055 1.494963-.815506 1.882812-1.291016.387661-.475471.542292-.948623.626953-1.152343.04162-.100536.03991-.127042.03711-.13086.136439-.113328.872285-.166164 1.380855-.164064zm23.001953 5.001953c-.292429-.0012-.570852.125794-.761719.347656l-6 6.998047c-.561286.64903-.098247 1.657097.759766 1.654297h2c0 6.708428-3.360966 12.962803-8.953125 16.667969-5.608331 3.715865-12.70252 4.575337-18.763672 2.951172-1.086028-.299271-1.761047 1.146887-.833984 1.787109.09335.0669.200063.14007.294922.205078 6.590353 4.499142 16.88325 4.553944 24.550781.126953 7.76516-4.483426 11.707031-12.870239 11.707031-21.738281h2.001953c.854347-.0039 1.310825-1.008064.751953-1.654297l-5.99414-6.998047c-.190417-.221106-.468024-.348094-.759766-.347656zm-23.001953.996094c-3.301696 0-6.001953 2.700144-6.001953 6.001953s2.700257 6.001953 6.001953 6.001953c3.301659 0 6.001953-2.700144 6.001953-6.001953s-2.700294-6.001953-6.001953-6.001953zm23.001953 1.537109 3.824219 4.464844h-.828125c-.549154.0022-.994091.44692-.996094.996094v1.005859c0 8.28043-3.617815 15.913036-10.703125 20.003906-4.561727 2.633919-10.829159 3.789694-16.722656 2.41211 4.928489-.0025 9.886539-1.606831 13.578125-4.080078 6.149291-4.07432 9.847656-10.959167 9.847656-18.335938v-1.005859c-.0022-.552992-.452888-.999294-1.005859-.996094h-.81836zm-19.001953 4.464844c0 2.22096-1.779114 4.001953-4 4.001953-2.220846 0-4.001991-1.780993-4.001953-4.001953 0-2.220923 1.781107-4 4.053711-4 2.224036.05443 3.948242 1.813774 3.948242 4zm-25.714844 9.027344c-.129219-.01553-.350651.01577-.5097654.08984-.5033858.231689-.7207184.826575-.4882812 1.328125.162782.353583.3309977.703758.5097656 1.048829.254169.492328.860385.684364 1.351563.427734.491221-.254139.682848-.858868.427734-1.34961-.163842-.316694-.322613-.642198-.472656-.96875-.150157-.324461-.462336-.545935-.81836-.576171zm2.146485 3.855468c-.181697-.01826-.417501.06151-.589844.183594-.450134.319752-.556069.944231-.236328 1.394531.222534.314083.44933.621088.685547.923828.341171.438804.974536.514993 1.410156.169922.433882-.340652.509694-.967993.169922-1.402343-.21747-.278593-.430297-.560854-.634766-.84961-.119996-.190526-.454956-.438819-.804687-.419922zm-7.4335941 1.113282c-1.6451781 0-2.9960938 1.360869-2.9960938 3.005859 0 1.302142.8257498 2.392793 2.0078125 2.833984l-.00781 2.16211h-.9960962c-1.6446308 0-3.0058594 1.361171-3.0058594 3.005859v3.992188c0 1.644687 1.3612286 3.005859 3.0058594 3.005859h3.9921875c1.6446308 0 3.0058591-1.361172 3.0058591-3.005859v-.996094h4.996094c.55301.0032 1.003659-.443104 1.005859-.996094v-5.005859c-.002154-.553028-.452849-.999291-1.005859-.996094-.549193.0021-.993993.446887-.996094.996094v4.001953h-4v-.996094c0-1.644688-1.3612283-3.005859-3.0058591-3.005859h-.9960938l-.00781-2.158203c1.2666824-.494635 2.0097631-1.574641 2.0097631-2.837891-.0000377-1.64499-1.3606805-3.005859-3.0058593-3.005859zm0 2c.5640839 0 1.0039062.441719 1.0039062 1.005859 0 .564102-.4398223.996094-1.0039062.996094-.5641217 0-.9960938-.431992-.9960938-.996094 0-.56414.4319721-1.005859.9960938-1.005859zm10.2812501.236328c-.26526.004-.516735.113002-.701172.302734-.380742.395951-.370382 1.026073.02344 1.410156.275031.266612.554561.529219.841797.783203.413813.364808 1.044684.325292 1.410157-.08789.364787-.413828.325241-1.044676-.08789-1.410156-.264109-.233541-.522166-.471128-.775391-.716797-.189879-.183685-.446053-.28475-.710937-.28125zm3.519531 2.765625c-.357272-.02217-.699197.148305-.896484.447265-.305908.46001-.180852 1.080955.279297 1.386719.320725.212905.643908.423047.974609.621094.475003.283963 1.090342.128231 1.373047-.347656.284255-.474528.129451-1.089583-.345703-1.373047-.304511-.182366-.600114-.372958-.894532-.56836-.145925-.09713-.315321-.154677-.490234-.166015zm-15.7929686 5h3.9921875c.571265.000038 1.0058593.434572 1.0058593 1.005859 0 1.331577-.0002324 2.660078 0 3.992188 0 .571283-.4345943 1.003906-1.0058593 1.003906h-3.9921875c-.571265 0-1.0039063-.432623-1.0039063-1.003906v-3.992188c0-.571287.4326413-1.005859 1.0039063-1.005859zm1.9960937 2.001953c-.5522566.000011-1.0000098.447728-1 1 .000011.552261.4477581.999992 1 1 .5522566.000015.9999891-.447724 1-1 .0000099-.552291-.4477286-1.000008-1-1z" transform="scale(.265)"/></g></svg>