<?xml version="1.0" encoding="UTF-8"?>
<svg xmlns="http://www.w3.org/2000/svg" id="Icons" viewBox="0 0 74 74" width="512" height="512"><path d="M48.5,71H45.56a1,1,0,0,1,0-2H48.5a1,1,0,0,1,0,2Z"/><path d="M38.56,71H4a2,2,0,0,1-2-2V33a1,1,0,0,1,2,0V69H38.56a1,1,0,0,1,0,2Z"/><path d="M70,71H65.44a1,1,0,0,1,0-2H70V34H43a1,1,0,0,1,0-2H70a2,2,0,0,1,2,2V69A2,2,0,0,1,70,71Z"/><path d="M58.43,71H55.5a1,1,0,0,1,0-2h2.93a1,1,0,1,1,0,2Z"/><path d="M65,34H54a1,1,0,0,1-1-1V6a1,1,0,0,1,1-1H65a1,1,0,0,1,1,1V33A1,1,0,0,1,65,34ZM55,32h9V7H55Z"/><path d="M65,13H54a1,1,0,0,1,0-2H65a1,1,0,0,1,0,2Z"/><path d="M23,34a1,1,0,0,1-.4-1.917l20-8.667a1,1,0,0,1,1.4.917V33a1,1,0,0,1-2,0V25.856L23.4,33.917A.974.974,0,0,1,23,34Z"/><path d="M3,34a1,1,0,0,1-.4-1.917l20-8.667a1,1,0,0,1,1.4.917V33a1,1,0,0,1-2,0V25.856L3.4,33.917A.974.974,0,0,1,3,34Z"/><path d="M26,71H12a1,1,0,0,1-1-1V52a1,1,0,0,1,1-1H26a1,1,0,0,1,1,1V70A1,1,0,0,1,26,71ZM13,69H25V53H13Z"/><path d="M64,49H58.667a1,1,0,0,1-1-1V42.667a1,1,0,0,1,1-1H64a1,1,0,0,1,1,1V48A1,1,0,0,1,64,49Zm-4.333-2H63V43.667H59.667Z"/><path d="M52.667,49H47.333a1,1,0,0,1-1-1V42.667a1,1,0,0,1,1-1h5.334a1,1,0,0,1,1,1V48A1,1,0,0,1,52.667,49Zm-4.334-2h3.334V43.667H48.333Z"/><path d="M41.333,49H36a1,1,0,0,1-1-1V42.667a1,1,0,0,1,1-1h5.333a1,1,0,0,1,1,1V48A1,1,0,0,1,41.333,49ZM37,47h3.333V43.667H37Z"/><path d="M64,60.333H58.667a1,1,0,0,1-1-1V54a1,1,0,0,1,1-1H64a1,1,0,0,1,1,1v5.333A1,1,0,0,1,64,60.333Zm-4.333-2H63V55H59.667Z"/><path d="M52.667,60.333H47.333a1,1,0,0,1-1-1V54a1,1,0,0,1,1-1h5.334a1,1,0,0,1,1,1v5.333A1,1,0,0,1,52.667,60.333Zm-4.334-2h3.334V55H48.333Z"/><path d="M41.333,60.333H36a1,1,0,0,1-1-1V54a1,1,0,0,1,1-1h5.333a1,1,0,0,1,1,1v5.333A1,1,0,0,1,41.333,60.333Zm-4.333-2h3.333V55H37Z"/></svg>
