<?xml version="1.0" encoding="iso-8859-1"?>
<!-- Generator: Adobe Illustrator 19.0.0, SVG Export Plug-In . SVG Version: 6.00 Build 0)  -->
<svg version="1.1" id="Layer_1" xmlns="http://www.w3.org/2000/svg" xmlns:xlink="http://www.w3.org/1999/xlink" x="0px" y="0px"
	 viewBox="0 0 512 512" style="enable-background:new 0 0 512 512;" xml:space="preserve">
<circle style="fill:#324A5E;" cx="256" cy="256" r="256"/>
<path style="fill:#2B3B4E;" d="M508.573,297.867L369.305,158.599l-19.292-2.586l-30.911-30.911l-18.566-1.843l-12.355,6.896
	l-1.324,23.273l18.87,18.87l0.507,16.436l-35.306-35.306h-19.927l-30.127-30.127l-16.879-0.04l-13.217,10.056l-0.029,20.111
	l20.059,20.059l-5.137,13.691l-28.581-28.579l-18.779-4.022l-11.35,7.47l-4.268,22.411l19.301,19.301l-2.103,189.292
	l118.008,118.008c66.56-5.639,125.861-36.733,168.126-83.525l0.521-0.586l0,0C478.405,391.458,500.486,347.022,508.573,297.867z"/>
<path style="fill:#FFFFFF;" d="M373.655,171.529c0-11.883-9.666-21.549-21.549-21.549c-11.883,0-21.549,9.666-21.549,21.549
	c0,10.097,6.989,18.57,16.377,20.895v84.263c0,1.908,1.046,3.558,2.586,4.455v109.323c0,1.429,1.157,2.586,2.586,2.586
	s2.586-1.157,2.586-2.586V281.141c1.539-0.896,2.586-2.546,2.586-4.455v-84.263C366.666,190.097,373.655,181.626,373.655,171.529z
	 M352.106,184.458c-7.13,0-12.929-5.799-12.929-12.929c0-7.13,5.799-12.929,12.929-12.929c7.13,0,12.929,5.799,12.929,12.929
	C365.035,178.659,359.236,184.458,352.106,184.458z"/>
<path style="fill:#D0D1D3;" d="M352.106,149.98c-0.048,0-0.095,0.007-0.143,0.007v8.62c0.048,0,0.095-0.007,0.143-0.007
	c7.13,0,12.929,5.799,12.929,12.929c0,7.13-5.799,12.929-12.929,12.929c-0.048,0-0.095-0.007-0.143-0.007v208.586
	c0.048,0.002,0.095,0.014,0.143,0.014c1.429,0,2.586-1.157,2.586-2.586V281.141c1.539-0.896,2.586-2.546,2.586-4.455v-84.263
	c9.388-2.326,16.377-10.799,16.377-20.895C373.655,159.646,363.989,149.98,352.106,149.98z"/>
<path style="fill:#FFFFFF;" d="M181.439,171.529c0-11.883-9.666-21.549-21.549-21.549c-11.883,0-21.549,9.666-21.549,21.549
	c0,10.097,6.989,18.57,16.377,20.895v84.263c0,1.908,1.046,3.558,2.586,4.455v109.323c0,1.429,1.157,2.586,2.586,2.586
	s2.586-1.157,2.586-2.586V281.141c1.539-0.896,2.586-2.546,2.586-4.455v-84.263C174.451,190.097,181.439,181.626,181.439,171.529z
	 M159.891,184.458c-7.13,0-12.929-5.799-12.929-12.929c0-7.13,5.799-12.929,12.929-12.929c7.13,0,12.929,5.799,12.929,12.929
	C172.82,178.659,167.021,184.458,159.891,184.458z"/>
<path style="fill:#D0D1D3;" d="M159.891,149.98c-0.145,0-0.286,0.019-0.431,0.022v8.62c0.145-0.007,0.286-0.022,0.431-0.022
	c7.13,0,12.929,5.799,12.929,12.929c0,7.13-5.799,12.929-12.929,12.929c-0.145,0-0.286-0.017-0.431-0.022v208.572
	c0.141,0.024,0.283,0.043,0.431,0.043c1.429,0,2.586-1.157,2.586-2.586V281.141c1.539-0.896,2.586-2.546,2.586-4.455v-84.263
	c9.388-2.326,16.377-10.799,16.377-20.895C181.439,159.646,171.773,149.98,159.891,149.98z"/>
<path style="fill:#FFFFFF;" d="M325.601,140.498c0-11.883-9.666-21.549-21.549-21.549c-11.883,0-21.549,9.666-21.549,21.549
	c0,10.097,6.989,18.57,16.377,20.895v84.263c0,1.908,1.046,3.558,2.586,4.455v109.323c0,1.429,1.157,2.586,2.586,2.586
	s2.586-1.157,2.586-2.586V250.111c1.539-0.896,2.586-2.546,2.586-4.455v-84.263C318.612,159.067,325.601,150.595,325.601,140.498z
	 M304.052,153.428c-7.13,0-12.929-5.799-12.929-12.929c0-7.13,5.799-12.929,12.929-12.929c7.13,0,12.929,5.799,12.929,12.929
	C316.981,147.628,311.182,153.428,304.052,153.428z"/>
<path style="fill:#D0D1D3;" d="M304.052,118.949c-0.121,0-0.238,0.016-0.359,0.017v8.62c0.121-0.003,0.238-0.017,0.359-0.017
	c7.13,0,12.929,5.799,12.929,12.929c0,7.13-5.799,12.929-12.929,12.929c-0.121,0-0.238-0.016-0.359-0.017v208.575
	c0.119,0.017,0.236,0.036,0.359,0.036c1.429,0,2.586-1.157,2.586-2.586V250.113c1.539-0.896,2.586-2.546,2.586-4.455v-84.264
	c9.388-2.326,16.377-10.799,16.377-20.895C325.601,128.615,315.935,118.949,304.052,118.949z"/>
<path style="fill:#FFFFFF;" d="M277.547,168.943c0-11.883-9.666-21.549-21.549-21.549c-11.883,0-21.549,9.666-21.549,21.549
	c0,10.097,6.989,18.57,16.377,20.895v84.263c0,1.908,1.046,3.558,2.586,4.455v109.323c0,1.429,1.157,2.586,2.586,2.586
	s2.586-1.157,2.586-2.586V278.556c1.539-0.896,2.586-2.546,2.586-4.455v-84.263C270.558,187.511,277.547,179.04,277.547,168.943z
	 M255.998,181.872c-7.13,0-12.929-5.799-12.929-12.929c0-7.13,5.799-12.929,12.929-12.929c7.13,0,12.929,5.799,12.929,12.929
	C268.928,176.073,263.128,181.872,255.998,181.872z"/>
<path style="fill:#D0D1D3;" d="M255.998,147.394c-0.193,0-0.381,0.024-0.574,0.029v8.62c0.191-0.009,0.381-0.029,0.574-0.029
	c7.13,0,12.929,5.799,12.929,12.929c0,7.13-5.799,12.929-12.929,12.929c-0.193,0-0.383-0.021-0.574-0.029v208.553
	c0.184,0.041,0.376,0.069,0.574,0.069c1.429,0,2.586-1.157,2.586-2.586V278.556c1.539-0.896,2.586-2.546,2.586-4.455v-84.263
	c9.388-2.326,16.377-10.799,16.377-20.895C277.547,157.06,267.881,147.394,255.998,147.394z"/>
<path style="fill:#FFFFFF;" d="M229.493,140.498c0-11.883-9.666-21.549-21.549-21.549c-11.883,0-21.549,9.666-21.549,21.549
	c0,10.097,6.989,18.57,16.377,20.895v84.263c0,1.908,1.046,3.558,2.586,4.455v109.323c0,1.429,1.157,2.586,2.586,2.586
	s2.586-1.157,2.586-2.586V250.111c1.539-0.896,2.586-2.546,2.586-4.455v-84.263C222.505,159.067,229.493,150.595,229.493,140.498z
	 M207.944,153.428c-7.13,0-12.929-5.799-12.929-12.929c0-7.13,5.799-12.929,12.929-12.929s12.929,5.799,12.929,12.929
	C220.874,147.628,215.074,153.428,207.944,153.428z"/>
<path style="fill:#D0D1D3;" d="M207.944,118.949c-0.072,0-0.143,0.01-0.215,0.01v8.62c0.072-0.002,0.143-0.01,0.215-0.01
	c7.13,0,12.929,5.799,12.929,12.929c0,7.13-5.799,12.929-12.929,12.929c-0.072,0-0.143-0.01-0.215-0.01V362
	c0.072,0.007,0.141,0.022,0.215,0.022c1.429,0,2.586-1.157,2.586-2.586V250.113c1.539-0.896,2.586-2.546,2.586-4.455v-84.265
	c9.388-2.326,16.377-10.799,16.377-20.895C229.493,128.615,219.827,118.949,207.944,118.949z"/>
<g>
</g>
<g>
</g>
<g>
</g>
<g>
</g>
<g>
</g>
<g>
</g>
<g>
</g>
<g>
</g>
<g>
</g>
<g>
</g>
<g>
</g>
<g>
</g>
<g>
</g>
<g>
</g>
<g>
</g>
</svg>
