<?xml version="1.0" encoding="UTF-8"?>
<!-- Generator: Adobe Illustrator 25.4.1, SVG Export Plug-In . SVG Version: 6.00 Build 0)  -->
<svg xmlns="http://www.w3.org/2000/svg" xmlns:xlink="http://www.w3.org/1999/xlink" version="1.1" id="Capa_1" x="0px" y="0px" viewBox="0 0 512 512" style="enable-background:new 0 0 512 512;" xml:space="preserve" width="512" height="512">
<path style="fill:#76B900;" d="M190.887,187.698v-30.523c3.022-0.184,6.028-0.384,9.05-0.384  c83.672-2.638,138.507,71.984,138.507,71.984s-59.177,82.152-122.678,82.152c-8.482,0-16.764-1.319-24.679-3.957v-92.705  c32.594,3.957,39.189,18.284,58.609,50.878l43.531-36.551c0,0-31.842-41.644-85.358-41.644  C202.192,186.763,196.548,187.131,190.887,187.698 M190.887,86.694v45.601l9.05-0.568c116.266-3.957,192.207,95.344,192.207,95.344  s-87.062,105.896-177.696,105.896c-7.915,0-15.646-0.751-23.36-2.07v28.269c6.412,0.751,13.007,1.319,19.403,1.319  c84.423,0,145.47-43.147,204.646-94.024c9.802,7.915,49.943,26.95,58.225,35.232c-56.154,47.104-187.131,84.991-261.368,84.991  c-7.163,0-13.942-0.384-20.722-1.135v39.757H512V86.694H190.887z M190.887,306.986v24.128c-78.011-13.943-99.685-95.16-99.685-95.16  s37.503-41.46,99.685-48.24v26.382h-0.184c-32.594-3.957-58.225,26.566-58.225,26.566S146.989,292.092,190.887,306.986   M52.38,232.548c0,0,46.169-68.21,138.691-75.373v-24.88C88.564,140.594,0,227.272,0,227.272s50.126,145.103,190.887,158.294  v-26.382C87.629,346.359,52.38,232.548,52.38,232.548z"/>















</svg>
