<?xml version="1.0"?>
<svg xmlns="http://www.w3.org/2000/svg" id="Icons" viewBox="0 0 60 60" width="512" height="512"><path d="M2,60H4a3,3,0,0,0,3-3h9a4,4,0,0,0,4-4V43.237a4.242,4.242,0,0,0,.775-.589l2.834-2.825,1.411,1.41a3,3,0,0,0,4.242,0l.707-.707,6.651,6.653a3,3,0,0,0,4.242,0l3.062,3.062a1.991,1.991,0,0,0,2.582.212l8.253-5.891A2,2,0,0,0,55,41.522l-1.234-1.234,2.226-1.272a2,2,0,0,0,.422-3.151L43,22.448A3.989,3.989,0,1,0,37.552,17L26.432,5.879a3,3,0,0,0-4.243,0L20.241,7.827,19.3,6.883A2.988,2.988,0,0,0,17.171,6h-.009a2.956,2.956,0,0,0-2.108.885l-.64.637-.467-.466A7.022,7.022,0,0,0,5.528,5.919,6.939,6.939,0,0,0,2.943,8.49,7.03,7.03,0,0,0,2,12V44a2,2,0,0,0-2,2V58A2,2,0,0,0,2,60Zm16-7a2,2,0,0,1-2,2H7V51h5a2,2,0,0,0,2-2V41a1.984,1.984,0,0,1,.62-1.45A2,2,0,0,1,16.1,39,2.114,2.114,0,0,1,18,41.165ZM19.95,40.646a4.125,4.125,0,0,0-2.36-3.3l1.768-1.774,2.834,2.834Zm7.9-.827a1,1,0,0,1-1.414,0l-8.484-8.484a1,1,0,0,1,0-1.415l.707-.707,6.031,6.031,3.868,3.868Zm10.186,5.946-7.358-7.359h0l-5.06-5.06L12.291,20.021a1,1,0,0,1,0-1.415l4.242-4.242L43.689,41.522l-4.243,4.243A1,1,0,0,1,38.032,45.765Zm7.3,3.062-3.062-3.062L45.1,42.937l.384.384a1.945,1.945,0,0,0,.206.148.954.954,0,0,0,.117.175l2.827,2.828Zm8.256-5.89-3.3,2.357-1.92-1.921,3.6-2.057ZM41,17a2,2,0,0,1,.487,3.936l-2.423-2.423A1.984,1.984,0,0,1,41,17ZM23.6,7.293a1,1,0,0,1,1.414,0L55,37.279l-8.1,4.629L45.81,40.815,17.947,12.95ZM17.171,8a1,1,0,0,1,.712.3l.944.944-4.244,4.244-.945-.952a1,1,0,0,1,0-1.415l2.836-2.825A.875.875,0,0,1,17.171,8ZM4.676,9.49A4.926,4.926,0,0,1,6.515,7.659a5.017,5.017,0,0,1,6.018.808L13,8.931l-.779.777a3.015,3.015,0,0,0,0,4.237l.948.954-2.293,2.293a3.006,3.006,0,0,0,0,4.243L17.24,27.8l-.708.708a3.006,3.006,0,0,0,0,4.243l1.412,1.412L15.124,36.99c-.059.058-.106.112-.156.168A3.927,3.927,0,0,0,12,41v8H7V47a3,3,0,0,0-3-3V12A5.018,5.018,0,0,1,4.676,9.49ZM2,46H4a1,1,0,0,1,1,1V57a1,1,0,0,1-1,1H2Z"/><path d="M41,0a1,1,0,0,0,0,2A17.019,17.019,0,0,1,58,19a1,1,0,0,0,2,0A19.021,19.021,0,0,0,41,0Z"/><path d="M54,20a1,1,0,0,0,1-1A14.015,14.015,0,0,0,41,5a1,1,0,0,0,0,2A12.013,12.013,0,0,1,53,19,1,1,0,0,0,54,20Z"/><path d="M41,10a1,1,0,0,0,0,2,7.009,7.009,0,0,1,7,7,1,1,0,0,0,2,0A9.01,9.01,0,0,0,41,10Z"/></svg>
